<svg width="442" height="129" viewBox="0 0 442 129" fill="none" xmlns="http://www.w3.org/2000/svg">
<g filter="url(#filter0_d_4368_321046)">
<path d="M-291.75 69.5627C-199.875 69.5627 -108 69.5627 -16.1252 69.5627C-9.3089 69.5627 -8.68305 69.1905 -8.81422 76.1426C-8.93425 82.5044 -10.4592 88.6745 -10.4592 95.0599C-10.4592 97.5519 -9.10298 95.362 -8.08312 94.146C-0.502985 85.1081 7.80413 77.1187 16.9571 69.6541C38.7423 51.8875 63.1883 36.2803 90.2499 27.9814C98.3288 25.5039 112.409 22.5736 120.956 25.4226C128.802 28.0377 124.429 64.1857 124.429 72.3044C124.429 74.7388 122.826 85.717 124.794 87.2919C126.358 88.5431 161.816 63.2736 164.457 61.7034C185.159 49.3938 258.032 7.17207 261.784 55.946C262.572 66.1891 262.607 76.3902 262.607 86.6522C262.607 96.9799 303.425 72.3978 304.736 71.756C334.454 57.2102 361.524 46.1222 394.662 44.9795C401.183 44.7546 407.73 44.4614 413.944 46.5331" stroke="#699BF7" stroke-width="48" stroke-linecap="round" stroke-linejoin="round"/>
<path d="M-291.75 69.5627C-262.342 69.5627 -10.3392 63.2923 -10.4592 69.6541C-10.5792 76.0159 -10.4592 88.6745 -10.4592 95.0599C-10.4592 97.5519 -9.10298 95.362 -8.08312 94.146C-0.502985 85.1081 7.80413 77.1187 16.9571 69.6541C38.7423 51.8875 63.1883 36.2803 90.2499 27.9814C98.3288 25.5039 112.409 22.5736 120.956 25.4226C128.802 28.0377 124.429 64.1857 124.429 72.3044C124.429 74.7388 122.826 85.717 124.794 87.2919C126.358 88.5431 161.816 63.2736 164.457 61.7034C185.159 49.3938 258.032 7.17207 261.784 55.946C262.572 66.1891 262.607 76.3902 262.607 86.6522C262.607 96.9799 303.425 72.3978 304.736 71.756C334.454 57.2102 361.524 46.1222 394.662 44.9795C401.183 44.7546 407.73 44.4614 413.944 46.5331" stroke="black" stroke-width="4" stroke-linecap="round" stroke-linejoin="round"/>
<circle cx="413.75" cy="46" r="8" fill="white" stroke="black" stroke-width="4"/>
<circle cx="265.25" cy="85.75" r="8" fill="white" stroke="black" stroke-width="4"/>
<circle cx="224.75" cy="35.25" r="8" fill="white" stroke="black" stroke-width="4"/>
<circle cx="123.5" cy="89.5" r="8" fill="white" stroke="black" stroke-width="4"/>
<circle cx="117.5" cy="24.25" r="8" fill="white" stroke="black" stroke-width="4"/>
</g>
<defs>
<filter id="filter0_d_4368_321046" x="-319.75" y="0.248486" width="761.701" height="127.938" filterUnits="userSpaceOnUse" color-interpolation-filters="sRGB">
<feFlood flood-opacity="0" result="BackgroundImageFix"/>
<feColorMatrix in="SourceAlpha" type="matrix" values="0 0 0 0 0 0 0 0 0 0 0 0 0 0 0 0 0 0 127 0" result="hardAlpha"/>
<feOffset dy="4"/>
<feGaussianBlur stdDeviation="2"/>
<feComposite in2="hardAlpha" operator="out"/>
<feColorMatrix type="matrix" values="0 0 0 0 0 0 0 0 0 0 0 0 0 0 0 0 0 0 0.25 0"/>
<feBlend mode="normal" in2="BackgroundImageFix" result="effect1_dropShadow_4368_321046"/>
<feBlend mode="normal" in="SourceGraphic" in2="effect1_dropShadow_4368_321046" result="shape"/>
</filter>
</defs>
</svg>
